<svg width="100" height="100" viewBox="0 0 100 100" fill="none" xmlns="http://www.w3.org/2000/svg">
<path d="M14.6984 89.1583L6.84375 1.05591H93.1563L85.2938 89.145L49.9477 98.9442L14.6984 89.1583V89.1583Z" fill="#1572B6"/>
<path d="M50.001 91.4549L78.5627 83.5361L85.2822 8.25958H50.001V91.4549Z" fill="#33A9DC"/>
<path d="M50.001 40.1786H64.2994L65.2869 29.1137H50.001V18.3083H77.0963L76.8369 21.2075L74.1807 50.984H50.001V40.1786Z" fill="white"/>
<path d="M50.0652 68.2412L50.0176 68.2553L37.984 65.0061L37.2145 56.3881H26.3691L27.8824 73.3545L50.016 79.4975L50.0652 79.4834V68.2412V68.2412Z" fill="#EBEBEB"/>
<path d="M63.3805 50.5273L62.0789 64.9977L50.0273 68.2508V79.493L72.1789 73.3539L72.3414 71.5281L74.2211 50.5273H63.3805Z" fill="white"/>
<path d="M50.0369 18.3083V29.1137H23.9369L23.7205 26.6856L23.2283 21.2075L22.9697 18.3083H50.0369V18.3083ZM50.0002 40.1801V50.9856H38.1182L37.9018 48.5575L37.4088 43.0794L37.151 40.1801H50.0002V40.1801Z" fill="#EBEBEB"/>
</svg>
