<svg width="100" height="100" viewBox="0 0 100 100" fill="none" xmlns="http://www.w3.org/2000/svg">
<path d="M14.8726 88.9656L7.05615 1.29766H92.9437L85.1187 88.9523L49.9476 98.7023L14.8726 88.9656Z" fill="#E44D26"/>
<path d="M50 91.25L78.4203 83.3703L85.107 8.46562H50V91.25Z" fill="#F16529"/>
<path d="M49.9998 40.9805H35.7717L34.7889 29.9695H49.9998V19.218H23.0381L23.2959 22.1023L25.9381 51.7328H49.9998V40.9805ZM49.9998 68.9047L49.9521 68.918L37.9779 65.6836L37.2131 57.1094H26.4186L27.9248 73.9914L49.9506 80.1055L49.9998 80.0922V68.9047Z" fill="#EBEBEB"/>
<path d="M49.9624 40.9805V51.7328H63.2022L61.9546 65.6773L49.9624 68.9141V80.1008L72.0054 73.9914L72.1671 72.175L74.6937 43.868L74.9554 40.9805H72.0585H49.9624ZM49.9624 19.218V29.9695H75.9343L76.1499 27.5539L76.6405 22.1023L76.8976 19.218H49.9624Z" fill="white"/>
</svg>
