<svg width="100" height="100" viewBox="0 0 100 100" fill="none" xmlns="http://www.w3.org/2000/svg">
<path fill-rule="evenodd" clip-rule="evenodd" d="M50.0002 25C38.889 25 31.9446 30.5556 29.1668 41.6667C33.3335 36.1111 38.1946 34.0278 43.7502 35.4167C46.9199 36.2083 49.1853 38.5093 51.6931 41.054C55.7779 45.2006 60.5063 50 70.8335 50C81.9446 50 88.889 44.4444 91.6668 33.3333C87.5002 38.8889 82.639 40.9722 77.0835 39.5833C73.9137 38.7917 71.6483 36.4907 69.1406 33.946C65.0557 29.7994 60.3273 25 50.0002 25ZM29.1668 50C18.0557 50 11.1113 55.5556 8.3335 66.6667C12.5002 61.1111 17.3613 59.0278 22.9168 60.4167C26.0866 61.2099 28.352 63.5093 30.8597 66.054C34.9446 70.2006 39.673 75 50.0002 75C61.1113 75 68.0557 69.4445 70.8335 58.3333C66.6668 63.8889 61.8057 65.9722 56.2502 64.5833C53.0804 63.7917 50.815 61.4907 48.3073 58.946C44.2224 54.7994 39.494 50 29.1668 50Z" fill="#38B2AC"/>
</svg>
